<svg enable-background="new 0 0 80 80" viewBox="0 0 80 80" xmlns="http://www.w3.org/2000/svg" xmlns:xlink="http://www.w3.org/1999/xlink"><mask id="a" height="77.1459" maskUnits="userSpaceOnUse" width="67.4917" x="5.9994" y="11.8541"><circle clip-rule="evenodd" cx="40" cy="40" fill="#fff" fill-rule="evenodd" r="40"/></mask><mask id="b" height="33.2389" maskUnits="userSpaceOnUse" width="67.4917" x="-.0006" y=".3239"><path clip-rule="evenodd" d="m67.4911 32.3239h-67.4917v-32h67.4917z" fill="#fff" fill-rule="evenodd"/></mask><g><circle clip-rule="evenodd" cx="40" cy="40" fill="#fff" fill-rule="evenodd" r="40" transform="matrix(-1 0 0 1 80 0)"/><g mask="url(#a)"><g clip-rule="evenodd" fill-rule="evenodd" transform="translate(6 11)"><path d="m46.5745 9.3272c-2.2065 0-3.994-1.7889-3.994-3.9954v-5.0079h-17.6705v5.0079c0 2.2065-1.7889 3.9954-3.994 3.9954h-4.7805c-8.5013 0-15.4941 6.6395-16.1361 14.9835 0 0 22.167 9.252 33.5006 9.252 11.1637 0 33.9911-9.252 33.9911-9.252-.642-8.344-7.6347-14.9835-16.1361-14.9835z" fill="#1890ff" mask="url(#b)" transform="translate(0 44.43725)"/><path d="m43.9034 52.7213c-.8065-.7322-1.3228-1.7761-1.3228-2.9515v-5.0079h-17.6704v5.0079c0 1.1755-.5162 2.2194-1.3228 2.9515 4.4387 7.9493 15.8773 7.9493 20.316 0" fill="#dfc8b1"/><path d="m54.2528 21.7094c0 10.6435-9.182 19.2721-20.5076 19.2721s-20.5076-8.6286-20.5076-19.2721c0-10.6421 9.182-19.2707 20.5076-19.2707s20.5076 8.6287 20.5076 19.2707" fill="#156cdd"/><path d="m52.1538 34.9426h-.8265v-11.051h1.4829c1.43 0 2.544 1.2398 2.3953 2.6627l-.6564 6.2305c-.1287 1.2269-1.1626 2.1578-2.3953 2.1578" fill="#fff2df"/><path d="m15.3369 34.9426h.8265v-11.051h-1.4829c-1.43 0-2.544 1.2398-2.3953 2.6627l.6564 6.2305c.1287 1.2269 1.1626 2.1578 2.3953 2.1578" fill="#fff2df"/><path d="m52.4024 33.8435v-10.6935c0-6.149-3.2819-11.8347-8.61-14.9092l-1.4372-.8308c-5.3282-3.0759-11.8919-3.0759-17.2186 0l-1.4386.8308c-5.3282 3.0745-8.61 8.7602-8.61 14.9092v10.6935c0 5.6614 3.023 10.8937 7.9251 13.7251l4.4344 2.5597c3.8967 2.2508 8.6987 2.2508 12.5954 0l4.4344-2.5597c4.9035-2.8313 7.9251-8.0637 7.9251-13.7251" fill="#fff2df"/><path d="m19.1381 19.1107c-.1416 0-.2846-.03-.4233-.0887-.5448-.2331-.7979-.8637-.562-1.4086 1.1869-2.7728 3.279-5.1308 5.893-6.6381.5119-.2974 1.1683-.1216 1.4657.3918.296.5134.1201 1.1697-.3918 1.4672-2.2136 1.277-3.9868 3.2747-4.995 5.6256-.1743.4063-.5705.6508-.9866.6508" fill="#dfe8f4"/><g fill="#0064c1"><path d="m13.777 22.3798.7121 4.6747c.1916 1.2512 1.5058 1.4157 1.8733.2331l1.1783-3.7895z"/><path d="m53.7541 22.3798-.7121 4.6747c-.1902 1.2512-1.5044 1.4157-1.8719.2331l-1.1798-3.7895z"/><path d="m53.8742 24.4773s-5.2696-1.3127-8.4499-1.7289c-6.5523-.8609-14.4916-1.8261-21.0639-7.0613-1.8762-1.4958-6.7024-2.1893-6.8397-4.5846l-.0558-.9724c-.0915-1.6073.5663-3.1503 1.7618-4.2285 3.5678-3.2161 13.6107-7.9694 25.3096-2.6641 15.7601 7.15 9.3379 21.2398 9.3379 21.2398"/><path d="m23.5873 13.8906s-3.156 9.3493-7.9279 10.5863c-.1201.0315.8809.7336.7608.7579l-3.1689-.9724s-4.8162-14.2643 7.4589-17.6019c12.2736-3.3362 2.8771 7.2301 2.8771 7.2301"/></g></g></g></g></svg>