<?xml version="1.0" encoding="utf-8"?>
<!-- Generator: Adobe Illustrator 25.0.0, SVG Export Plug-In . SVG Version: 6.00 Build 0)  -->
<svg version="1.1" id="图层_1" xmlns="http://www.w3.org/2000/svg" xmlns:xlink="http://www.w3.org/1999/xlink" x="0px" y="0px"
	 viewBox="0 0 197 130" style="enable-background:new 0 0 197 130;" xml:space="preserve">
<style type="text/css">
	.st0{fill:none;stroke:#D6DCE8;stroke-linejoin:round;}
	.st1{fill:#D6DCE8;}
	.st2{fill:#F1F3F9;stroke:#D6DCE8;stroke-linejoin:round;}
	.st3{fill:none;stroke:#D6DCE8;}
	.st4{fill:#FFFFFF;stroke:#D6DCE8;stroke-linejoin:round;}
	.st5{opacity:0.6;}
	.st6{fill:none;stroke:#D6DCE8;stroke-width:0.7;stroke-linejoin:round;}
	.st7{fill:#F1F3F9;stroke:#D6DCE8;stroke-width:0.7;stroke-linejoin:round;}
	.st8{fill:none;stroke:#D6DCE8;stroke-width:0.7;}
	.st9{fill:#FFFFFF;stroke:#D6DCE8;stroke-width:0.7;stroke-linejoin:round;}
	.st10{fill:none;stroke:#CDD6E1;stroke-width:1.5;stroke-linecap:round;stroke-linejoin:round;}
	.st11{fill:#FFFFFF;stroke:#D6DCE8;}
	.st12{fill:#F1F3F9;stroke:#D6DCE8;}
	.st13{fill:#FFFFFF;}
	.st14{fill:#F1F3F9;}
	.st15{fill:none;stroke:#AAB2C5;stroke-linejoin:round;}
	.st16{opacity:0.1;fill:#3B589D;enable-background:new    ;}
	.st17{fill:#AAB2C5;}
</style>
<g id="安环PC_xFF08_最终确认_xFF09_">
	<g id="暂无数据" transform="translate(1.000000, 1.000000)">
		<g id="编组-3" transform="translate(106.032888, 0.000000)">
			<g id="编组-2" transform="translate(-0.000000, 0.000000)">
				<line id="Path" class="st0" x1="8.8642" y1="22.2827" x2="8.8642" y2="31.9226"/>
				<path id="Path_1_" class="st1" d="M8.9038,37.1105c1.5518,0,2.8097-1.256,2.8097-2.8051c0-1.5492-1.2579-2.8051-2.8097-2.8051
					s-2.8097,1.256-2.8097,2.8051C6.0941,35.8545,7.352,37.1105,8.9038,37.1105z"/>
				<polygon id="Path_2_" class="st2" points="77.2473,117.5749 47.0132,117.5749 47.0132,120.0247 77.2473,120.0247 				"/>
				<polygon id="Path_3_" class="st2" points="74.9519,110.7799 49.229,110.7799 47.0132,117.5754 77.1682,117.5754 				"/>
				<polygon id="Path_4_" class="st0" points="86.5887,13.4327 86.5887,22.6774 0,22.6774 8.3895,14.2228 				"/>
				<polyline id="Path_5_" class="st0" points="37.4364,22.6773 37.4364,14.2227 27.7805,22.6773 27.7805,14.2227 18.0454,22.6773 
					18.0454,14.2227 8.3895,22.6773 8.3895,14.5388 8.3895,14.2227 				"/>
				<polyline id="Path_6_" class="st0" points="47.1714,14.2227 47.1714,22.6773 56.8273,14.2227 				"/>
				<line id="Path_7_" class="st0" x1="56.8273" y1="14.2227" x2="56.8273" y2="22.6773"/>
				<polygon id="Path_8_" class="st0" points="67.2744,106.8291 56.9064,106.8291 56.9064,4.8199 62.1302,0 67.2744,4.8199 				"/>
				<line id="Path_9_" class="st3" x1="56.9064" y1="5.373" x2="67.2744" y2="5.373"/>
				<line id="Path_10_" class="st0" x1="56.9064" y1="31.448" x2="67.2744" y2="31.448"/>
				<line id="Path_11_" class="st3" x1="56.9064" y1="39.8237" x2="67.2744" y2="39.8237"/>
				<line id="Path_12_" class="st3" x1="56.9064" y1="48.1203" x2="67.2744" y2="48.1203"/>
				<line id="Path_13_" class="st3" x1="56.9064" y1="56.496" x2="67.2744" y2="56.496"/>
				<line id="Path_14_" class="st3" x1="56.9064" y1="64.8717" x2="67.2744" y2="64.8717"/>
				<line id="Path_15_" class="st3" x1="56.9064" y1="73.247" x2="67.2744" y2="73.247"/>
				<line id="Path_16_" class="st3" x1="56.9064" y1="81.544" x2="67.2744" y2="81.544"/>
				<line id="Path_17_" class="st3" x1="56.9064" y1="89.9198" x2="67.2744" y2="89.9198"/>
				<line id="Path_18_" class="st3" x1="56.9064" y1="98.295" x2="67.2744" y2="98.295"/>
				<polyline id="Path_19_" class="st0" points="16.0665,14.1437 62.1302,0 84.0549,13.5116 				"/>
				<line id="Path_20_" class="st0" x1="56.8273" y1="22.6772" x2="67.2744" y2="13.7485"/>
				<line id="Path_21_" class="st0" x1="66.9579" y1="22.9935" x2="57.1438" y2="31.1322"/>
				<line id="Path_22_" class="st0" x1="66.9579" y1="5.531" x2="57.0647" y2="13.4325"/>
				<line id="Path_23_" class="st0" x1="46.8549" y1="14.1437" x2="37.7528" y2="22.2823"/>
				<line id="Path_24_" class="st0" x1="66.8788" y1="31.685" x2="57.1438" y2="39.5075"/>
				<line id="Path_25_" class="st0" x1="66.8788" y1="40.1399" x2="57.1438" y2="47.8045"/>
				<line id="Path_26_" class="st0" x1="66.9579" y1="48.4365" x2="57.1438" y2="56.1797"/>
				<line id="Path_27_" class="st0" x1="66.9579" y1="56.8914" x2="57.1438" y2="64.556"/>
				<line id="Path_28_" class="st0" x1="66.9579" y1="65.1875" x2="57.1438" y2="72.852"/>
				<line id="Path_29_" class="st0" x1="66.9579" y1="73.4845" x2="57.1438" y2="81.2278"/>
				<line id="Path_30_" class="st0" x1="66.9579" y1="81.8603" x2="57.1438" y2="89.604"/>
				<line id="Path_31_" class="st0" x1="66.9579" y1="90.2355" x2="57.1438" y2="97.9793"/>
				<line id="Path_32_" class="st0" x1="66.9579" y1="98.6904" x2="57.1438" y2="106.355"/>
				<polygon id="Path_33_" class="st2" points="73.2899,106.7499 50.9706,106.7499 50.9706,110.7799 73.2899,110.7799 				"/>
				<path id="Path_34_" class="st2" d="M45.5885,30.3424l5.9359,5.926c0.3956,0.3949,0.9499,0.632,1.4246,0.632h14.8797V22.9937
					H44.876v5.8471C45.0342,29.4728,45.1929,29.9469,45.5885,30.3424z"/>
				<polygon id="Path_35_" class="st4" points="58.4788,29.3064 65.4437,29.3064 65.4437,25.2765 58.4788,25.2765 				"/>
				<polygon id="Path_36_" class="st4" points="49.4748,29.3064 56.4397,29.3064 56.4397,25.2765 49.4748,25.2765 				"/>
			</g>
			<line id="Path_37_" class="st0" x1="76.2182" y1="22.6775" x2="76.2182" y2="13.5907"/>
			<line id="Path_38_" class="st0" x1="75.9018" y1="13.7485" x2="67.6705" y2="22.5192"/>
			<line id="Path_39_" class="st0" x1="76.4556" y1="22.5192" x2="86.5086" y2="13.7485"/>
		</g>
		
			<g id="编组-3备份" transform="translate(46.500000, 78.000000) scale(-1, 1) translate(-46.500000, -78.000000) translate(16.000000, 36.000000)" class="st5">
			<g id="编组-2_1_" transform="translate(-0.000000, 0.000000)">
				<line id="Path_40_" class="st6" x1="6.2447" y1="15.5947" x2="6.2447" y2="22.3412"/>
				<path id="Path_41_" class="st1" d="M6.2725,25.972c1.0932,0,1.9794-0.879,1.9794-1.9632s-0.8861-1.9632-1.9794-1.9632
					s-1.9794,0.879-1.9794,1.9632S5.1793,25.972,6.2725,25.972z"/>
				<polygon id="Path_42_" class="st7" points="54.4191,82.2855 33.1198,82.2855 33.1198,84 54.4191,84 				"/>
				<polygon id="Path_43_" class="st7" points="52.8021,77.53 34.6808,77.53 33.1198,82.2859 54.3634,82.2859 				"/>
				<polygon id="Path_44_" class="st6" points="61,9.4009 61,15.8709 0,15.8709 5.9102,9.9539 				"/>
				<polyline id="Path_45_" class="st6" points="26.3732,15.8709 26.3732,9.9539 19.5708,15.8709 19.5708,9.9539 12.7126,15.8709 
					12.7126,9.9539 5.9102,15.8709 5.9102,10.175 5.9102,9.9539 				"/>
				<polyline id="Path_46_" class="st6" points="33.2313,9.9539 33.2313,15.8709 40.0337,9.9539 				"/>
				<line id="Path_47_" class="st6" x1="40.0337" y1="9.9539" x2="40.0337" y2="15.8709"/>
				<polygon id="Path_48_" class="st6" points="47.3935,74.765 40.0894,74.765 40.0894,3.3732 43.7695,0 47.3935,3.3732 				"/>
				<line id="Path_49_" class="st8" x1="40.0894" y1="3.7603" x2="47.3935" y2="3.7603"/>
				<line id="Path_50_" class="st6" x1="40.0894" y1="22.009" x2="47.3935" y2="22.009"/>
				<line id="Path_51_" class="st8" x1="40.0894" y1="27.8709" x2="47.3935" y2="27.8709"/>
				<line id="Path_52_" class="st8" x1="40.0894" y1="33.6772" x2="47.3935" y2="33.6772"/>
				<line id="Path_53_" class="st8" x1="40.0894" y1="39.5391" x2="47.3935" y2="39.5391"/>
				<line id="Path_54_" class="st8" x1="40.0894" y1="45.4009" x2="47.3935" y2="45.4009"/>
				<line id="Path_55_" class="st8" x1="40.0894" y1="51.2623" x2="47.3935" y2="51.2623"/>
				<line id="Path_56_" class="st8" x1="40.0894" y1="57.0691" x2="47.3935" y2="57.0691"/>
				<line id="Path_57_" class="st8" x1="40.0894" y1="62.9309" x2="47.3935" y2="62.9309"/>
				<line id="Path_58_" class="st8" x1="40.0894" y1="68.7923" x2="47.3935" y2="68.7923"/>
				<polyline id="Path_59_" class="st6" points="11.3185,9.8986 43.7695,0 59.215,9.4562 				"/>
				<line id="Path_60_" class="st6" x1="40.0337" y1="15.8708" x2="47.3935" y2="9.6219"/>
				<line id="Path_61_" class="st6" x1="47.1705" y1="16.0921" x2="40.2566" y2="21.7881"/>
				<line id="Path_62_" class="st6" x1="47.1705" y1="3.8709" x2="40.2009" y2="9.4008"/>
				<line id="Path_63_" class="st6" x1="33.0083" y1="9.8985" x2="26.5961" y2="15.5944"/>
				<line id="Path_64_" class="st6" x1="47.1148" y1="22.1749" x2="40.2566" y2="27.6495"/>
				<line id="Path_65_" class="st6" x1="47.1148" y1="28.0922" x2="40.2566" y2="33.4563"/>
				<line id="Path_66_" class="st6" x1="47.1705" y1="33.8986" x2="40.2566" y2="39.3177"/>
				<line id="Path_67_" class="st6" x1="47.1705" y1="39.8158" x2="40.2566" y2="45.1799"/>
				<line id="Path_68_" class="st6" x1="47.1705" y1="45.6218" x2="40.2566" y2="50.9859"/>
				<line id="Path_69_" class="st6" x1="47.1705" y1="51.4286" x2="40.2566" y2="56.8477"/>
				<line id="Path_70_" class="st6" x1="47.1705" y1="57.2904" x2="40.2566" y2="62.7099"/>
				<line id="Path_71_" class="st6" x1="47.1705" y1="63.1519" x2="40.2566" y2="68.5714"/>
				<line id="Path_72_" class="st6" x1="47.1705" y1="69.0691" x2="40.2566" y2="74.4332"/>
				<polygon id="Path_73_" class="st7" points="51.6312,74.7096 35.9077,74.7096 35.9077,77.53 51.6312,77.53 				"/>
				<path id="Path_74_" class="st7" d="M32.1162,21.2353l4.1817,4.1473c0.2787,0.2764,0.6692,0.4423,1.0036,0.4423H47.784v-9.7326
					H31.6142v4.0921C31.7257,20.6267,31.8375,20.9585,32.1162,21.2353z"/>
				<polygon id="Path_75_" class="st9" points="41.1971,20.5103 46.1037,20.5103 46.1037,17.6899 41.1971,17.6899 				"/>
				<polygon id="Path_76_" class="st9" points="34.854,20.5103 39.7606,20.5103 39.7606,17.6899 34.854,17.6899 				"/>
			</g>
			<line id="Path_77_" class="st6" x1="53.6942" y1="15.871" x2="53.6942" y2="9.5116"/>
			<line id="Path_78_" class="st6" x1="53.4713" y1="9.6219" x2="47.6725" y2="15.7602"/>
			<line id="Path_79_" class="st6" x1="53.8614" y1="15.7602" x2="60.9436" y2="9.6219"/>
		</g>
		<line id="Path_80_" class="st10" x1="0" y1="120.1826" x2="195" y2="120.1826"/>
		<path id="Path_81_" class="st11" d="M67.4291,119.5511H56.6651c-0.3165,0-0.6329-0.2371-0.6329-0.6325
			c0-0.3157,0.2374-0.632,0.6329-0.632h10.7641c0.3165,0,0.6334,0.2371,0.6334,0.632
			C68.0626,119.314,67.8247,119.5511,67.4291,119.5511z"/>
		<line id="Path_82_" class="st10" x1="60.8338" y1="127.7494" x2="165.9787" y2="127.7494"/>
		<line id="Path_83_" class="st10" x1="26.6342" y1="127.7494" x2="39.9221" y2="127.7494"/>
		<g id="编组-7" transform="translate(54.610080, 43.327815)">
			<path id="Path_84_" class="st12" d="M61.4177,75.7686c-6.6479,0.1584-14.5627,0-20.1821-0.0787
				c-5.6194,0.1579-13.5342,0.2371-20.1826,0.0787c6.5693-3.7138,8.7856-10.588,9.1812-15.1708h21.9237
				C52.6325,65.1806,54.8489,72.0548,61.4177,75.7686z"/>
			<path id="Path_85_" class="st4" d="M82.4711,2.4493v56.8124c0,1.4224-1.1082,2.4493-2.4537,2.4493H2.4537
				C1.1082,61.7109,0,60.6048,0,59.2617V2.4493C0,1.1061,1.1082,0,2.4537,0h77.5638C81.3629,0,82.4711,1.0274,82.4711,2.4493z"/>
			<path id="Path_86_" class="st12" d="M82.4711,2.4493v48.99H0.0791v-48.99C0.0791,1.1061,1.1873,0,2.5328,0h77.5638
				C81.3629,0,82.4711,1.0274,82.4711,2.4493z"/>
			<polygon id="Path_87_" class="st13" points="79.5427,3.0026 3.0075,3.0026 3.0075,48.5945 79.4636,48.5945 79.4636,3.0026 			"/>
			<path id="Path_88_" class="st1" d="M41.2355,58.5505c1.1362,0,2.0576-0.9197,2.0576-2.0543s-0.9214-2.0543-2.0576-2.0543
				c-1.1367,0-2.0581,0.9197-2.0581,2.0543S40.0988,58.5505,41.2355,58.5505z"/>
			<path id="Path_89_" class="st14" d="M16.779,45.829H6.9649c-0.7917,0-1.4246-0.632-1.4246-1.4224V6.6376
				c0-0.7904,0.6329-1.4224,1.4246-1.4224h9.8141c0.7917,0,1.4246,0.632,1.4246,1.4224v37.769
				C18.2037,45.197,17.5707,45.829,16.779,45.829z"/>
			<path id="Path_90_" class="st1" d="M11.8717,12.8007c1.3115,0,2.3745-1.0615,2.3745-2.3706s-1.0631-2.3706-2.3745-2.3706
				c-1.311,0-2.374,1.0615-2.374,2.3706S10.5608,12.8007,11.8717,12.8007z"/>
			<path id="Path_91_" class="st1" d="M16.067,16.2774h-8.39c-0.1582,0-0.2374-0.0792-0.2374-0.2371v-0.632
				c0-0.1584,0.0791-0.2371,0.2374-0.2371h8.3104c0.1587,0,0.2379,0.0787,0.2379,0.2371v0.632
				C16.3043,16.1982,16.1461,16.2774,16.067,16.2774z"/>
			<path id="Path_92_" class="st1" d="M16.067,19.5957h-8.39c-0.1582,0-0.2374-0.0792-0.2374-0.2371v-0.632
				c0-0.1579,0.0791-0.2371,0.2374-0.2371h8.3104c0.1587,0,0.2379,0.0792,0.2379,0.2371v0.632
				C16.3043,19.5165,16.1461,19.5957,16.067,19.5957z"/>
			<path id="Path_93_" class="st1" d="M16.067,22.9145h-8.39c-0.1582,0-0.2374-0.0787-0.2374-0.2371v-0.632
				c0-0.1579,0.0791-0.2371,0.2374-0.2371h8.3104c0.1587,0,0.2379,0.0792,0.2379,0.2371v0.632
				C16.3043,22.8358,16.1461,22.9145,16.067,22.9145z"/>
			<path id="Path_94_" class="st1" d="M16.067,26.312h-8.39c-0.1582,0-0.2374-0.0787-0.2374-0.2371v-0.632
				c0-0.1579,0.0791-0.2371,0.2374-0.2371h8.3104c0.1587,0,0.2379,0.0792,0.2379,0.2371v0.632
				C16.3043,26.1541,16.1461,26.312,16.067,26.312z"/>
			<path id="Path_95_" class="st1" d="M16.067,29.6308h-8.39c-0.1582,0-0.2374-0.0792-0.2374-0.2371v-0.632
				c0-0.1584,0.0791-0.2371,0.2374-0.2371h8.3104c0.1587,0,0.2379,0.0787,0.2379,0.2371v0.632
				C16.3043,29.473,16.1461,29.6308,16.067,29.6308z"/>
			<path id="Path_96_" class="st1" d="M16.067,32.9492h-8.39c-0.1582,0-0.2374-0.0787-0.2374-0.2371v-0.632
				c0-0.1579,0.0791-0.2371,0.2374-0.2371h8.3104c0.1587,0,0.2379,0.0792,0.2379,0.2371v0.632
				C16.3043,32.8705,16.1461,32.9492,16.067,32.9492z"/>
			<path id="Path_97_" class="st1" d="M14.5632,36.268H9.2603c-0.1582,0-0.2379-0.0787-0.2379-0.2371v-0.632
				c0-0.1579,0.0796-0.2371,0.2379-0.2371h5.3029c0.1582,0,0.2374,0.0792,0.2374,0.2371v0.632
				C14.8006,36.1893,14.6424,36.268,14.5632,36.268z"/>
			<polygon id="Path_98_" class="st1" points="46.3011,40.1396 25.1686,40.1396 25.1686,41.3249 46.3011,41.3249 			"/>
			<polygon id="Path_99_" class="st1" points="36.6452,43.3005 25.1686,43.3005 25.1686,44.4853 36.6452,44.4853 			"/>
			<polygon id="Path_100_" class="st1" points="71.707,40.1396 50.575,40.1396 50.575,41.3249 71.707,41.3249 			"/>
			<polygon id="Path_101_" class="st1" points="62.0511,43.3005 50.575,43.3005 50.575,44.4853 62.0511,44.4853 			"/>
		</g>
		<path id="Path_102_" class="st0" d="M112.2061,42.7724c0,1.7381,1.5829,3.1604,3.4827,2.6863
			c1.029-0.2371,1.8202-1.0269,2.0576-2.0543c0.317-1.501-0.5538-2.9234-1.8993-3.3188c-0.4747-0.1579-0.7917-0.5528-0.7917-1.1061
			v-2.4493"/>
		
			<g id="编组-5" transform="translate(100.327038, 64.062634) rotate(25.000000) translate(-100.327038, -64.062634) translate(73.817997, 39.517395)">
			<path id="Path_103_" class="st15" d="M11.5925,3.4292l16.754-3.3278c1.2283-0.2626,2.4562,0,3.4211,0.6134l12.8947,7.4435"/>
			<path id="Path_104_" class="st16" d="M45.9783,49.0698L3.54,42.6772c-1.316-0.1754-2.1933-1.4013-2.0175-2.7149L5.8204,9.3988
				C5.9962,8.0852,7.224,7.2096,8.54,7.3851l42.4383,6.3926c1.316,0.1754,2.1928,1.4013,2.0175,2.7149l-4.2984,30.563
				C48.5221,48.2819,47.2943,49.2452,45.9783,49.0698z"/>
			<path id="Path_105_" class="st4" d="M44.4781,43.4506L2.0398,37.0575c-1.316-0.1749-2.1928-1.4008-2.0175-2.7144L4.3207,3.7796
				C4.4959,2.466,5.7238,1.5904,7.0397,1.7653l42.4383,6.3931c1.316,0.1754,2.1933,1.4013,2.0175,2.7149l-4.2979,30.563
				C47.0219,42.6622,45.7941,43.626,44.4781,43.4506z"/>
			<path id="Path_106_" class="st14" d="M43.0885,39.9724l-37.9366-5.915c-1.0721-0.1428-1.7872-1.1422-1.644-2.2127L7.0112,6.934
				c0.1427-1.0705,1.1437-1.7842,2.2163-1.6414l37.9361,5.915c1.0726,0.1428,1.7877,1.1422,1.6445,2.2127L45.3048,38.331
				C45.1621,39.3304,44.1611,40.1152,43.0885,39.9724z"/>
			<path id="Path_107_" class="st17" d="M17.6966,23.5507c1.1207,0.1699,2.2128-0.633,2.3831-1.7516
				c0.1703-1.1186-0.6339-2.2092-1.7546-2.3791c-1.1202-0.1699-2.2128,0.6325-2.3831,1.7516
				C15.7718,22.2902,16.576,23.3808,17.6966,23.5507z"/>
			<path id="Path_108_" class="st17" d="M33.5573,25.9568c1.1207,0.1699,2.2128-0.633,2.3831-1.7516
				c0.1703-1.1186-0.6334-2.2092-1.7541-2.3791c-1.1207-0.1699-2.2128,0.6325-2.3836,1.7516
				C31.6194,24.7826,32.4366,25.7869,33.5573,25.9568z"/>
			<polygon id="Path_109_" class="st17" points="18.97,14.6397 14.0457,16.4023 14.4873,17.6317 19.4117,15.8686 			"/>
			<polygon id="Path_110_" class="st17" points="34.6354,16.9832 33.8482,18.0256 38.0265,21.1691 38.8136,20.1261 			"/>
			<path id="Path_111_" class="st17" d="M24.8934,29.5729c1.333,0.202,2.5368-0.443,2.6885-1.4409
				c0.1522-0.9984-0.8052-1.9711-2.1382-2.1736c-1.333-0.202-2.5368,0.443-2.689,1.4409
				C22.603,28.3976,23.5604,29.3704,24.8934,29.5729z"/>
		</g>
		<g id="编组-6" transform="translate(56.744180, 105.987481)">
			<path id="Path_112_" class="st11" d="M10.6849,12.5631H0l0.4752-1.1848l1.1082-3.0026l0.9494-2.6076l1.1082-3.0026l0.7917-2.0543
				C4.5909,0.3157,4.9864,0,5.382,0c0.3961,0,0.7917,0.2371,0.9499,0.7112l0.7917,2.0543l1.1077,3.0026l0.9499,2.6076l1.1082,3.0026
				L10.6849,12.5631z"/>
			<polygon id="Path_113_" class="st1" points="8.2343,5.7681 2.5393,5.7681 3.6094,2.8447 7.1487,2.8447 			"/>
			<polygon id="Path_114_" class="st1" points="10.2858,11.3783 0.4717,11.3783 1.5799,8.3757 9.1777,8.3757 			"/>
		</g>
		<g id="编组" transform="translate(11.389520, 100.191966)">
			<polygon id="Path_115_" class="st2" points="5.1447,0 2.691,0 2.691,19.9906 5.1447,19.9906 			"/>
			<polygon id="Path_116_" class="st2" points="22.5572,0 20.1035,0 20.1035,19.9906 22.5572,19.9906 			"/>
			<polygon id="Path_117_" class="st11" points="25.6438,0.9482 0,0.9482 0,9.1656 25.6438,9.1656 			"/>
			<polygon id="Path_118_" class="st1" points="6.1737,0.9482 3.4827,9.0869 0.3961,9.0869 3.0871,0.9482 			"/>
			<polygon id="Path_119_" class="st1" points="12.426,0.9482 9.735,9.0869 6.6484,9.0869 9.2603,0.9482 			"/>
			<polygon id="Path_120_" class="st1" points="18.6789,0.9482 15.9879,9.0869 12.9013,9.0869 15.5132,0.9482 			"/>
			<polygon id="Path_121_" class="st1" points="24.9312,0.9482 22.2407,9.0869 19.1536,9.0869 21.7655,0.9482 			"/>
		</g>
		<g id="编组-4" transform="translate(122.817443, 102.404180)">
			<polygon id="Path_122_" class="st2" points="4.5122,0 2.374,0 2.374,17.5418 4.5122,17.5418 			"/>
			<polygon id="Path_123_" class="st2" points="19.785,0 17.6518,0 17.6518,17.5418 19.785,17.5418 			"/>
			<polygon id="Path_124_" class="st11" points="22.479,0.7904 0,0.7904 0,7.9808 22.479,7.9808 			"/>
			<polygon id="Path_125_" class="st1" points="5.4586,0.7904 3.0851,7.9808 0.3956,7.9808 2.6895,0.7904 			"/>
			<polygon id="Path_126_" class="st1" points="10.9218,0.7904 8.5483,7.9808 5.8592,7.9808 8.1527,0.7904 			"/>
			<polygon id="Path_127_" class="st1" points="16.385,0.7904 14.0064,7.9808 11.3174,7.9808 13.6108,0.7904 			"/>
			<polygon id="Path_128_" class="st1" points="21.8431,0.7904 19.4696,7.9808 16.7805,7.9808 19.074,0.7904 			"/>
		</g>
	</g>
</g>
</svg>
