<?xml version="1.0" encoding="utf-8"?>
<!-- Generator: Adobe Illustrator 25.0.0, SVG Export Plug-In . SVG Version: 6.00 Build 0)  -->
<svg version="1.1" id="图层_1" xmlns="http://www.w3.org/2000/svg" xmlns:xlink="http://www.w3.org/1999/xlink" x="0px" y="0px"
	 viewBox="0 0 38 38" style="enable-background:new 0 0 38 38;" xml:space="preserve">
<style type="text/css">
	.st0{fill:url(#形状结合_1_);}
</style>
<g id="App">
	<g id="个人中心备份" transform="translate(-32.000000, -423.000000)">
		<g id="personal_software_icon" transform="translate(32.000000, 423.000000)">
			
				<linearGradient id="形状结合_1_" gradientUnits="userSpaceOnUse" x1="-1139.9381" y1="839.063" x2="-1139.4381" y2="838.1938" gradientTransform="matrix(38 0 0 -38 43327 31886.6211)">
				<stop  offset="0" style="stop-color:#FEE939"/>
				<stop  offset="1" style="stop-color:#F7A00E"/>
			</linearGradient>
			<path id="形状结合" class="st0" d="M19,0c10.4934,0,19,8.5066,19,19s-8.5066,19-19,19S0,29.4934,0,19S8.5066,0,19,0z
				 M21.3603,15.0854c0.0703-0.7675-0.7431-1.3397-1.4534-0.975l0,0l-4.3636,2.24l-0.1007,0.0592
				c-0.4161,0.2785-0.5665,0.8308-0.3323,1.2871l0,0l0.0592,0.1007c0.2785,0.4161,0.8308,0.5665,1.2871,0.3323l0,0l2.5313-1.3006
				l-2.3332,11.9798l-0.0153,0.1068c-0.0742,0.8088,0.8271,1.3816,1.5369,0.9261l0,0l4.3636-2.8l0.0945-0.0686
				c0.3874-0.3172,0.484-0.8814,0.2071-1.313l0,0l-0.0686-0.0945c-0.3172-0.3874-0.8814-0.484-1.313-0.2071l0,0l-2.396,1.5366
				l2.2812-11.7038L21.3603,15.0854z M19.5,9c-0.392,0-0.7809,0.1605-1.0586,0.4383C18.1605,9.716,18,10.1049,18,10.5
				c0,0.392,0.1605,0.7809,0.4414,1.0586C18.7191,11.8364,19.1049,12,19.5,12s0.7809-0.1636,1.0617-0.4414
				C20.8395,11.2809,21,10.892,21,10.5c0-0.3951-0.1605-0.784-0.4383-1.0617C20.284,9.1605,19.8951,9,19.5,9z"/>
		</g>
	</g>
</g>
</svg>
