<?xml version="1.0" encoding="utf-8"?>
<!-- Generator: Adobe Illustrator 25.0.0, SVG Export Plug-In . SVG Version: 6.00 Build 0)  -->
<svg version="1.1" id="图层_1" xmlns="http://www.w3.org/2000/svg" xmlns:xlink="http://www.w3.org/1999/xlink" x="0px" y="0px"
	 viewBox="0 0 36 37" style="enable-background:new 0 0 36 37;" xml:space="preserve">
<style type="text/css">
	.st0{fill:#424242;}
	.st1{fill:#1890FF;}
</style>
<g id="App">
	<g id="个人中心备份" transform="translate(-682.000000, -71.000000)">
		<g id="消息通知备份" transform="translate(682.000000, 71.000000)">
			<path id="形状结合" class="st0" d="M18,3c7.1797,0,13,6.268,13,14v12h4c0.5523,0,1,0.4477,1,1s-0.4477,1-1,1H1
				c-0.5523,0-1-0.4477-1-1s0.4477-1,1-1h4V17C5,9.268,10.8203,3,18,3z M18,5C12.0183,5,7.1518,10.2085,7.0035,16.695L7,17v12h22V17
				c0-6.5255-4.7745-11.8344-10.7204-11.9962L18,5z M18,0c0.5523,0,1,0.4477,1,1v2h-2V1C17,0.4477,17.4477,0,18,0z"/>
			<path id="形状结合_1_" class="st1" d="M18,35c2.2091,0,4-1.7909,4-4h2l0,0c0,3.3137-2.6863,6-6,6s-6-2.6863-6-6h2l0,0
				C14,33.2091,15.7909,35,18,35z"/>
		</g>
	</g>
</g>
</svg>
