<?xml version="1.0" encoding="UTF-8"?>
<svg width="27px" height="27px" viewBox="0 0 27 27" version="1.1" xmlns="http://www.w3.org/2000/svg" xmlns:xlink="http://www.w3.org/1999/xlink">
    <title>拒绝icon</title>
    <g id="安环移动端" stroke="none" stroke-width="1" fill="none" fill-rule="evenodd">
        <g id="审核详情" transform="translate(-31.000000, -1413.000000)">
            <g id="拒绝icon" transform="translate(32.000000, 1414.000000)">
                <circle id="椭圆形备份" stroke="#FFFFFF" stroke-width="2" fill="#E64444" cx="12.5" cy="12.5" r="12.5"></circle>
                <path d="M8.6109127,7.69669914 L12.4998059,11.5848059 L16.3890873,7.69669914 C16.7495713,7.33621518 17.3168023,7.30848564 17.7090935,7.61351053 L17.8033009,7.69669914 C18.1938252,8.08722343 18.1938252,8.72038841 17.8033009,9.1109127 L17.8033009,9.1109127 L13.9138059,12.9998059 L17.8033009,16.8890873 C18.1938252,17.2796116 18.1938252,17.9127766 17.8033009,18.3033009 C17.4127766,18.6938252 16.7796116,18.6938252 16.3890873,18.3033009 L12.4998059,14.4138059 L8.6109127,18.3033009 C8.25042874,18.6637848 7.68319769,18.6915144 7.29090648,18.3864895 L7.19669914,18.3033009 C6.80617485,17.9127766 6.80617485,17.2796116 7.19669914,16.8890873 L7.19669914,16.8890873 L11.0848059,12.9998059 L7.19669914,9.1109127 C6.80617485,8.72038841 6.80617485,8.08722343 7.19669914,7.69669914 C7.58722343,7.30617485 8.22038841,7.30617485 8.6109127,7.69669914 Z" id="形状结合" fill="#FFFFFF"></path>
            </g>
        </g>
    </g>
</svg>