<?xml version="1.0" standalone="no"?><!DOCTYPE svg PUBLIC "-//W3C//DTD SVG 1.1//EN" "http://www.w3.org/Graphics/SVG/1.1/DTD/svg11.dtd"><svg t="1658891145796" class="icon" viewBox="0 0 1169 1024" version="1.1" xmlns="http://www.w3.org/2000/svg" p-id="5427" xmlns:xlink="http://www.w3.org/1999/xlink" width="36.53125" height="32"><defs><style type="text/css"></style></defs><path d="M536.447592 648.771836c41.456424 0 47.378771 44.600386 47.37877 71.872425-2.485923 25.882847-7.750231 37.142616-47.37877 37.142616s-44.819732-11.25977-47.305655-37.142616c0-27.198924 5.995462-71.872425 47.305655-71.872425z m0-41.822001c-15.866039 0-23.470039-8.408269-26.321539-20.106732l-20.106732-190.611813c-3.143962-14.184385 2.193462-28.734347 14.623078-39.628539 12.429616-10.967308 12.575847-12.722077 31.805193-12.648962 19.229347-0.073115 19.375577 1.608539 31.805193 12.575846 12.429616 10.967308 17.840154 25.51727 14.623077 39.701655L562.842246 586.769988c-2.924615 11.698462-10.528616 20.179847-26.394654 20.179847z m207.209006-129.341119S542.80863 58.145742 524.74913 60.485435C506.616514 62.898243 73.042271 909.647535 73.042271 909.647535h426.774512c25.224808 0 50.742078-4.533154 50.742078 30.196655s-34.729809 32.609462-50.742078 32.609462H73.042271c-97.46281 0.877385-79.915118-40.871501-47.013193-103.238926L460.188244 55.001781C495.356745-11.460106 544.928977-20.526414 580.024362 45.935473l222.563237 404.035626c9.139423 17.767039 19.594924 40.359693-8.335154 54.909656-27.930078 14.623077-42.406924-11.186654-50.595847-27.272039z" p-id="5428" fill="#8a8a8a"></path><path d="M824.156638 703.608376a92.271618 92.271618 0 1 0 92.637195 92.198502 92.490964 92.490964 0 0 0-92.637195-92.198502z m0 145.718965a53.520463 53.520463 0 1 1 53.959156-53.520463 53.666694 53.666694 0 0 1-53.812925 53.520463h-0.146231z m212.546429-117.935118a21.495924 21.495924 0 0 0-13.599462-5.410539 45.550886 45.550886 0 0 1-38.751155-22.373308 42.918732 42.918732 0 0 1 0-44.234809 19.887385 19.887385 0 0 0 2.193462-14.769308 22.66577 22.66577 0 0 0-9.212539-11.990924l-87.738464-50.23027a19.81427 19.81427 0 0 0-14.696192-2.193462 20.252962 20.252962 0 0 0-11.990924 9.285654 44.892847 44.892847 0 0 1-61.051348 16.377847 39.482309 39.482309 0 0 1-16.377846-16.377847 22.592654 22.592654 0 0 0-11.990924-9.285654 19.81427 19.81427 0 0 0-14.623077 2.193462l-87.738464 50.23027a20.76477 20.76477 0 0 0-9.358769 11.990924 17.693924 17.693924 0 0 0 2.193461 14.769308c6.068577 10.236154 7.604 22.446424 4.386923 33.852424a42.845617 42.845617 0 0 1-20.691654 26.687116 47.305655 47.305655 0 0 1-22.373308 6.068577 19.375577 19.375577 0 0 0-13.599462 5.410539 21.569039 21.569039 0 0 0-5.483654 13.672577v100.972349c0 5.118077 1.901 10.016808 5.483654 13.672577a21.495924 21.495924 0 0 0 13.599462 5.483654 44.454155 44.454155 0 0 1 44.673501 44.161694 47.525001 47.525001 0 0 1-5.995462 22.373308 19.887385 19.887385 0 0 0-2.193461 14.769308 22.66577 22.66577 0 0 0 9.285654 11.990924l87.738464 50.23027c4.386923 2.632154 9.724346 3.363308 14.696192 2.193462a20.252962 20.252962 0 0 0 11.990924-9.285654 44.892847 44.892847 0 0 1 61.051348-16.377847 39.482309 39.482309 0 0 1 16.377846 16.377847c2.778385 4.386923 7.019077 7.677116 11.990924 9.285654a15.06177 15.06177 0 0 0 4.898731 0.511807 16.816539 16.816539 0 0 0 9.797461-2.705269l87.738464-50.23027a20.76477 20.76477 0 0 0 9.212539-11.990924 17.693924 17.693924 0 0 0-2.193462-14.769308 43.357424 43.357424 0 0 1-4.386923-33.852424 42.845617 42.845617 0 0 1 20.76477-26.687116 47.305655 47.305655 0 0 1 22.373308-5.995462c5.118077 0 9.943693-1.974115 13.599462-5.483654a21.569039 21.569039 0 0 0 5.483654-13.672577v-100.972349a16.96277 16.96277 0 0 0-5.483654-13.672577z m-33.267501 97.755272a83.059079 83.059079 0 0 0-60.466424 104.189426l-57.761156 33.340616a71.506848 71.506848 0 0 0-19.083116-14.769308 81.158079 81.158079 0 0 0-41.456424-10.967308 84.228925 84.228925 0 0 0-61.051348 25.590385l-57.761155-33.194385c2.193462-7.823346 3.290192-15.866039 3.290192-23.981847 0-38.604924-26.687116-72.091771-64.34154-80.792503v-66.535001c7.896462-1.901 15.354231-4.825616 22.373308-8.773847 19.448693-10.747962 33.486847-29.246155 38.751155-50.742078a80.134464 80.134464 0 0 0-0.584923-45.33154l57.761155-33.267501c5.483654 5.922346 11.917808 10.967308 19.083116 14.696193a84.082695 84.082695 0 0 0 102.434657-14.696193l57.761156 33.267501c-6.214808 21.788385-3.509539 45.185309 7.677115 64.926464 11.698462 19.668039 30.708462 33.779309 52.862425 39.336078v67.704848h0.511807z" p-id="5429" fill="#8a8a8a"></path></svg>