<?xml version="1.0" encoding="utf-8"?>
<!-- Generator: Adobe Illustrator 25.0.0, SVG Export Plug-In . SVG Version: 6.00 Build 0)  -->
<svg version="1.1" id="图层_1" xmlns="http://www.w3.org/2000/svg" xmlns:xlink="http://www.w3.org/1999/xlink" x="0px" y="0px"
	 viewBox="0 0 44 44" style="enable-background:new 0 0 44 44;" xml:space="preserve">
<style type="text/css">
	.st0{fill-opacity:0;}
	.st1{fill:#888888;}
	.st2{fill:#FFFFFF;}
</style>
<g id="bottom_Home_Unselected_icon">
	<g id="首页" transform="translate(2.000000, 2.000000)">
		<rect id="矩形" y="0" class="st0" width="40" height="40"/>
		<path id="形状" class="st1" d="M34.8106,36.8h-9.6562c-0.6567,0-1.1891-0.5323-1.1892-1.189v-5.9148h-6.6906v5.9148
			c-0.0001,0.3154-0.1254,0.6179-0.3484,0.8408c-0.2231,0.223-0.5256,0.3482-0.841,0.3482H4.7894
			c-0.3154,0-0.6179-0.1252-0.841-0.3482S3.6,35.9264,3.6,35.611V13.662c0-0.4121,0.2136-0.7948,0.5642-1.0114L19.1748,3.376
			c0.3832-0.2367,0.8672-0.2367,1.2504,0l15.0106,9.2744C35.7864,12.867,36,13.2498,36,13.662v21.949
			c0,0.3154-0.1254,0.6179-0.3484,0.8408S35.126,36.8,34.8106,36.8L34.8106,36.8z"/>
		<polygon id="路径" class="st2" points="11.2136,23.9026 8.8366,23.9026 8.8366,15.8226 16.773,11.2366 17.9634,13.292 
			11.2136,17.192 		"/>
	</g>
</g>
</svg>
