<?xml version="1.0" standalone="no"?><!DOCTYPE svg PUBLIC "-//W3C//DTD SVG 1.1//EN" "http://www.w3.org/Graphics/SVG/1.1/DTD/svg11.dtd"><svg t="1658891462832" class="icon" viewBox="0 0 1024 1024" version="1.1" xmlns="http://www.w3.org/2000/svg" p-id="1551" xmlns:xlink="http://www.w3.org/1999/xlink" width="32" height="32"><defs><style type="text/css"></style></defs><path d="M352.427 701.653a35.627 35.627 0 0 0 0-71.253h-94.934a35.627 35.627 0 0 0 0 71.253z m71.04-224H257.493a35.627 35.627 0 0 0 0 71.04h165.974a35.627 35.627 0 1 0 0-71.04z" p-id="1552" fill="#8a8a8a"></path><path d="M381.653 867.627h-225.28V220.373h128v66.56a35.627 35.627 0 0 0 71.04 0v-66.56H526.08v66.56a35.627 35.627 0 0 0 71.04 0v-66.56h128v132.694a35.627 35.627 0 1 0 71.04 0V184.96a35.413 35.413 0 0 0-35.2-35.627H597.333V120.96a35.627 35.627 0 1 0-71.04 0v28.373h-170.24V120.96a35.627 35.627 0 1 0-71.04 0v28.373H120.96a35.627 35.627 0 0 0-35.627 35.627v718.08a35.627 35.627 0 0 0 35.627 35.627h260.693a35.627 35.627 0 0 0 0-71.04z" p-id="1553" fill="#8a8a8a"></path><path d="M928.213 877.867l-78.72-78.934a213.333 213.333 0 1 0-50.346 50.134l78.506 79.146a35.627 35.627 0 1 0 50.56-50.346zM776.32 775.893a141.013 141.013 0 1 1 0-199.68 140.587 140.587 0 0 1-0.213 199.894z" p-id="1554" fill="#8a8a8a"></path></svg>