<?xml version="1.0" encoding="utf-8"?>
<!-- Generator: Adobe Illustrator 25.0.0, SVG Export Plug-In . SVG Version: 6.00 Build 0)  -->
<svg version="1.1" id="图层_1" xmlns="http://www.w3.org/2000/svg" xmlns:xlink="http://www.w3.org/1999/xlink" x="0px" y="0px"
	 viewBox="0 0 44 44" style="enable-background:new 0 0 44 44;" xml:space="preserve">
<style type="text/css">
	.st0{fill-opacity:0;}
	.st1{fill:#BBBBBB;}
	.st2{fill:#FFFFFF;}
</style>
<g id="bottom_me_Unselected_icon">
	<g id="我的" transform="translate(2.000000, 2.000000)">
		<rect id="矩形" y="0" class="st0" width="40" height="40"/>
		<path id="形状" class="st1" d="M34.5607,40H5.3729c-1.7064,0-3.0925-1.3784-3.0925-3.0769v-6.3061
			c0-0.8825,0.3788-1.722,1.0387-2.3038l8.5201-7.5283c-2.0422-2.3545-3.073-5.5955-3.2526-7.3721
			c-0.1952-1.9172-0.3202-6.7357,2.706-10.0859c1.9836-2.1984,4.8965-3.3112,8.649-3.3112c3.9711,0,7.0129,1.1792,9.0472,3.5064
			c3.1082,3.5533,2.7177,8.5084,2.5264,9.9453c-0.3866,2.8661-1.597,5.5252-3.3346,7.4307l8.4264,7.4112
			c0.6638,0.5857,1.0426,1.4252,1.0426,2.3077v6.3061C37.6533,38.6177,36.2671,40,34.5607,40z"/>
		<path id="路径" class="st2" d="M21.8899,34.6154h-3.8462V26.927c0-0.8512,0.6872-1.5385,1.5385-1.5385h0.7692
			c0.8512,0,1.5385,0.6872,1.5385,1.5385V34.6154L21.8899,34.6154z"/>
	</g>
</g>
</svg>
